# xmcd CD database file
#
# Track frame offsets:
#	150
#	25133
#	37913
#	61395
#	87073
#	115785
#	141845
#
# Disc length: 2287 seconds
#
# Revision: 1
# Processed by: cddbd v1.5.1PL2 Copyright (c) Steve Scherf et al.
# Submitted via: CDex 1.60beta1
#
DISCID=5008ed07
DTITLE=J.R.Monterose - Straight Ahead
DYEAR=1959
DGENRE=Jazz
TTITLE0=Straight Ahead
TTITLE1=Violets for Your Furs
TTITLE2=Chafic
TTITLE3=I Remember Clifford
TTITLE4=Green Street Scene
TTITLE5=You Know That
TTITLE6=Short Bridge
EXTD=YEAR: 1959
EXTT0=
EXTT1=
EXTT2=
EXTT3=
EXTT4=
EXTT5=
EXTT6=
PLAYORDER=
